<?xml version="1.0" standalone="no"?>
<!DOCTYPE svg PUBLIC "-//W3C//DTD SVG 20010904//EN"
 "http://www.w3.org/TR/2001/REC-SVG-20010904/DTD/svg10.dtd">
<svg version="1.0" xmlns="http://www.w3.org/2000/svg"
 width="900.000000pt" height="900.000000pt" viewBox="0 0 900.000000 900.000000"
 preserveAspectRatio="xMidYMid meet">
<metadata>
Created by potrace 1.14, written by Peter Selinger 2001-2017
</metadata>
<g transform="translate(0.000000,900.000000) scale(0.100000,-0.100000)"
fill="#000000" stroke="none">
<path d="M4175 5924 c-339 -37 -631 -105 -896 -209 -705 -279 -1301 -740
-1519 -1175 -86 -172 -115 -307 -114 -535 0 -182 17 -271 80 -423 137 -331
377 -562 746 -716 219 -92 405 -140 640 -166 94 -10 110 -10 141 5 43 20 63
63 51 107 -16 54 -44 66 -214 88 -188 23 -309 53 -461 113 -219 86 -352 163
-468 273 -233 220 -346 508 -321 821 22 269 123 459 379 713 235 234 473 401
817 573 399 200 760 302 1194 338 362 29 1099 -38 1490 -136 320 -81 676 -255
934 -458 151 -118 241 -264 297 -483 27 -104 32 -141 36 -294 4 -153 2 -188
-17 -280 -52 -253 -154 -406 -449 -674 -233 -212 -419 -353 -710 -539 -191
-121 -196 -126 -196 -177 0 -56 40 -95 95 -94 41 1 110 41 360 208 349 232
764 601 911 809 93 132 159 293 190 467 20 110 17 381 -5 504 -74 410 -225
618 -629 870 -427 266 -861 392 -1565 452 -170 14 -714 27 -797 18z"/>
<path d="M3758 4710 c-27 -27 -30 -36 -25 -73 9 -69 71 -103 133 -73 60 28 72
100 25 147 -41 41 -91 40 -133 -1z"/>
<path d="M4515 4688 c-32 -18 -44 -40 -45 -80 0 -77 85 -123 143 -78 38 30 50
65 37 106 -19 55 -84 81 -135 52z"/>
<path d="M2673 4500 c-34 -14 -50 -49 -57 -127 -3 -39 -11 -84 -16 -98 -30
-79 8 -155 77 -155 47 0 79 24 99 76 l17 44 506 0 c406 0 564 -4 801 -20 162
-11 304 -23 316 -25 20 -4 20 -8 12 -67 -13 -83 -2 -335 17 -422 20 -95 65
-186 115 -236 47 -47 139 -94 216 -110 165 -34 368 95 465 296 40 83 91 279
105 402 l7 63 96 -3 95 -3 8 -42 c9 -57 23 -80 59 -99 38 -19 79 -11 109 21
20 22 22 34 25 184 3 146 2 163 -16 185 -41 52 -122 42 -158 -20 l-20 -34 -88
0 c-180 0 -496 21 -753 50 -568 63 -785 75 -1368 75 l-533 0 -16 27 c-27 43
-72 57 -120 38z m2077 -341 c46 -5 85 -11 86 -12 1 -1 -1 -62 -6 -136 -5 -87
-5 -142 2 -156 14 -31 51 -49 82 -41 45 11 58 45 66 179 4 68 9 128 12 133 4
5 41 7 83 6 l78 -4 -6 -71 c-9 -99 -49 -251 -85 -323 -54 -105 -151 -183 -230
-184 -43 0 -100 24 -135 58 -68 65 -104 335 -70 530 6 37 4 36 123 21z"/>
</g>
</svg>
